<?xml version="1.0" encoding="utf-8"?>
<!-- Generator: Adobe Illustrator 19.0.0, SVG Export Plug-In . SVG Version: 6.00 Build 0)  -->
<svg version="1.1" id="Layer_1" xmlns="http://www.w3.org/2000/svg" xmlns:xlink="http://www.w3.org/1999/xlink" x="0px" y="0px"
	 viewBox="-280 372 50 50" style="enable-background:new -280 372 50 50;" xml:space="preserve">
<style type="text/css">
	.st0{fill:none;}
	.st1{fill:#1C9DD9;}
</style>
<g>
	<rect x="-280" y="372" class="st0" width="50" height="50"/>
</g>
<g>
	<path class="st1" d="M-238,410c-1.7,0-3-1.3-3-3v-15c0-1.7,1.3-3,3-3s3,1.3,3,3v15C-235,408.7-236.3,410-238,410z M-238,391
		c-0.6,0-1,0.4-1,1v15c0,0.6,0.4,1,1,1s1-0.4,1-1v-15C-237,391.4-237.4,391-238,391z"/>
</g>
<g>
	<path class="st1" d="M-252,420h-5c-1.7,0-3-1.3-3-3s1.3-3,3-3h5c1.7,0,3,1.3,3,3S-250.3,420-252,420z M-257,416c-0.6,0-1,0.4-1,1
		s0.4,1,1,1h5c0.6,0,1-0.4,1-1s-0.4-1-1-1H-257z"/>
</g>
<g>
	<path class="st1" d="M-237,391h-2c0-8.8-7.2-16-16-16s-16,7.2-16,16h-2c0-9.9,8.1-18,18-18C-245.1,373-237,381.1-237,391z"/>
</g>
<g>
	<path class="st1" d="M-236,408v-2c2.2,0,4-3,4-6.5s-1.8-6.5-4-6.5v-2c3.4,0,6,3.7,6,8.5S-232.6,408-236,408z"/>
</g>
<g>
	<path class="st1" d="M-272,410c-1.7,0-3-1.3-3-3v-15c0-1.7,1.3-3,3-3s3,1.3,3,3v15C-269,408.7-270.3,410-272,410z M-272,391
		c-0.6,0-1,0.4-1,1v15c0,0.6,0.4,1,1,1s1-0.4,1-1v-15C-271,391.4-271.4,391-272,391z"/>
</g>
<g>
	<path class="st1" d="M-274,408c-3.4,0-6-3.7-6-8.5s2.6-8.5,6-8.5v2c-2.2,0-4,3-4,6.5s1.8,6.5,4,6.5V408z"/>
</g>
<g>
	<path class="st1" d="M-246,418h-4v-2h4c4.4,0,7-2.6,7-7h2C-237,414.6-240.4,418-246,418z"/>
</g>
</svg>
