<?xml version="1.0" encoding="utf-8"?>
<!-- Generator: Adobe Illustrator 19.0.0, SVG Export Plug-In . SVG Version: 6.00 Build 0)  -->
<svg version="1.1" id="Layer_1" xmlns="http://www.w3.org/2000/svg" xmlns:xlink="http://www.w3.org/1999/xlink" x="0px" y="0px"
	 viewBox="-49 141 512 512" style="enable-background:new -49 141 512 512;" xml:space="preserve">
<style type="text/css">
	.st0{fill:#1C9DD9;}
</style>
<g>
	<path class="st0" d="M417,243.9H215.6c-13.4,0-24.2,10.8-24.2,24.2v354.7c0,13.4,10.8,24.2,24.2,24.2H417
		c13.4,0,24.2-10.8,24.2-24.2V268.1C441.2,254.8,430.3,243.9,417,243.9z M279.7,262.5h73.2c1.6,0,2.9,1.3,2.9,2.9s-1.3,2.9-2.9,2.9
		h-73.2c-1.6,0-2.9-1.3-2.9-2.9S278.1,262.5,279.7,262.5z M270.8,624.1h-28.4c-4.2,0-7.7-3.4-7.7-7.7c0-4.3,3.4-7.7,7.7-7.7h28.4
		c4.2,0,7.7,3.4,7.7,7.7C278.5,620.7,275.1,624.1,270.8,624.1z M332.3,622.7c0,5.4-4.4,9.8-9.8,9.8H310c-5.4,0-9.8-4.4-9.8-9.8
		v-12.5c0-5.4,4.4-9.8,9.8-9.8h12.5c5.4,0,9.8,4.4,9.8,9.8V622.7z M390.2,624.1h-28.4c-4.2,0-7.7-3.4-7.7-7.7c0-4.3,3.4-7.7,7.7-7.7
		h28.4c4.2,0,7.7,3.4,7.7,7.7C397.9,620.7,394.4,624.1,390.2,624.1z M428.7,586.5H203.9V287.9h224.8V586.5z"/>
	<g>
		<path class="st0" d="M176.4,622.8v-49.4H0.9V197h294.4v32h28.1v-46.2c0-19.8-16-35.8-35.8-35.8H8.7c-19.8,0-35.9,16-35.9,35.8
			v404.8c0,19.8,16,35.8,35.8,35.8h167.8C176.5,623.2,176.4,623,176.4,622.8z M148.1,611.8c-7,0-12.6-5.6-12.6-12.6
			s5.6-12.6,12.6-12.6s12.6,5.6,12.6,12.6C160.7,606.2,155.1,611.8,148.1,611.8z"/>
	</g>
</g>
</svg>
