<?xml version="1.0" encoding="utf-8"?>
<!-- Generator: Adobe Illustrator 19.0.0, SVG Export Plug-In . SVG Version: 6.00 Build 0)  -->
<svg version="1.1" id="Layer_1" xmlns:sketch="http://www.bohemiancoding.com/sketch/ns"
	 xmlns="http://www.w3.org/2000/svg" xmlns:xlink="http://www.w3.org/1999/xlink" x="0px" y="0px" viewBox="-289 381 32 32"
	 style="enable-background:new -289 381 32 32;" xml:space="preserve">
<style type="text/css">
	.st0{fill:#1C9DD9;}
</style>
<title></title>
<desc></desc>
<g id="Page-1">
	<g id="icon-27-one-finger-click">
		<path id="one-finger-click" class="st0" d="M-275.6,382v4h1v-4H-275.6L-275.6,382z M-269.2,384.6l-3.1,2.5l0.6,0.8l3.1-2.5
			L-269.2,384.6L-269.2,384.6z M-267.2,391.3l-3.9-0.9l-0.2,1l3.9,0.9L-267.2,391.3L-267.2,391.3z M-282.8,392.3l3.9-0.9l-0.2-1
			l-3.9,0.9L-282.8,392.3L-282.8,392.3z M-281.6,385.4l3.1,2.5l0.6-0.8l-3.1-2.5L-281.6,385.4L-281.6,385.4z M-269.6,394.5
			c0-0.8-0.7-1.5-1.5-1.5c-0.8,0-1.5,0.7-1.5,1.5v1.9v2.6h-1v-2.5v-7c0-0.8-0.7-1.5-1.5-1.5c-0.8,0-1.5,0.7-1.5,1.5v10.3
			c-2.1-2.2-4.8-4.6-5.9-3.5c-1.1,1.1,1.7,4.1,5.6,10.7c1.8,3,4,5,7.8,5c4.1,0,7.5-3.4,7.5-7.5v-3.3v-4.7c0-0.8-0.7-1.5-1.5-1.5
			c-0.8,0-1.5,0.7-1.5,1.5v2.2v0.3h-1v-2.3v-1.2c0-0.8-0.7-1.5-1.5-1.5c-0.8,0-1.5,0.7-1.5,1.5v1v1.5h-1v-1.5V394.5L-269.6,394.5z"
			/>
	</g>
</g>
</svg>
