<?xml version="1.0" encoding="utf-8"?>
<!-- Generator: Adobe Illustrator 19.0.0, SVG Export Plug-In . SVG Version: 6.00 Build 0)  -->
<svg version="1.1" id="Layer_1" xmlns="http://www.w3.org/2000/svg" xmlns:xlink="http://www.w3.org/1999/xlink" x="0px" y="0px"
	 viewBox="-275 367 60 60" style="enable-background:new -275 367 60 60;" xml:space="preserve">
<style type="text/css">
	.st0{fill:#1C9DD9;}
</style>
<title></title>
<desc></desc>
<g id="People">
	<g id="Icon-34">
		<path id="price-tag" class="st0" d="M-248.8,393.3c-0.4,0.4-0.4,1,0,1.4l6,6c0.2,0.2,0.5,0.3,0.7,0.3c0.3,0,0.5-0.1,0.7-0.3
			c0.4-0.4,0.4-1,0-1.4l-6-6C-247.8,392.9-248.4,392.9-248.8,393.3L-248.8,393.3z M-251.4,397.3c-0.4-0.4-1-0.4-1.4,0
			c-0.4,0.4-0.4,1,0,1.4l6,6c0.2,0.2,0.5,0.3,0.7,0.3c0.3,0,0.5-0.1,0.7-0.3c0.4-0.4,0.4-1,0-1.4L-251.4,397.3z M-255.4,401.3
			c-0.4-0.4-1-0.4-1.4,0c-0.4,0.4-0.4,1,0,1.4l6,6c0.2,0.2,0.5,0.3,0.7,0.3c0.3,0,0.5-0.1,0.7-0.3c0.4-0.4,0.4-1,0-1.4L-255.4,401.3
			z M-236.5,399l-10.6-10.6l-14.6,14.6l10.6,10.6L-236.5,399z M-246.4,386.3l12,12c0.4,0.4,0.4,1,0,1.4l-16,16
			c-0.2,0.2-0.5,0.3-0.7,0.3c-0.3,0-0.5-0.1-0.7-0.3l-12-12c-0.4-0.4-0.4-1,0-1.4l16-16C-247.4,385.9-246.8,385.9-246.4,386.3
			L-246.4,386.3z M-223.1,403.6c-0.5-0.3-1.1-0.1-1.4,0.4l-11.5,19.6c-0.8,1.4-2.7,1.9-4.1,1.1l-2.2-1.4c-0.5-0.3-1.1-0.2-1.4,0.3
			c-0.3,0.5-0.2,1.1,0.3,1.4l2.3,1.5c0.8,0.5,1.6,0.7,2.5,0.7c1.7,0,3.4-0.9,4.3-2.5l11.5-19.5
			C-222.5,404.5-222.6,403.9-223.1,403.6L-223.1,403.6z M-215.1,372v16c0,3.1-1,5.4-3.3,7.7l-29.7,29.7c-0.9,0.9-2.2,1.5-3.5,1.5
			s-2.6-0.5-3.5-1.5l-18.4-18.4c-0.9-0.9-1.5-2.2-1.5-3.5s0.5-2.6,1.5-3.5l26-25.9c-6.8-1.5-11-1.6-12.2-1.3
			c0.5,0.5,2.1,1.7,6.1,3.2c0.5,0.2,0.8,0.8,0.6,1.3c-0.2,0.5-0.8,0.8-1.3,0.6c-8.1-3.2-7.6-5-7.5-5.6c0.4-1.4,2.4-1.9,6.4-1.5
			c3.3,0.3,7.6,1.1,12,2.3c4.4,1.2,8.5,2.6,11.5,4c3.7,1.7,5.2,3.1,4.8,4.5c-0.4,1.3-2.2,1.5-2.8,1.6c0,0-0.1,0-0.1,0
			c-0.5,0-0.9-0.4-1-0.9c0-0.5,0.4-1,0.9-1.1c0.4,0,0.7-0.1,0.9-0.1c-0.4-0.4-1.5-1.1-3.2-2c-0.4,0.6-0.6,1.3-0.6,2c0,2.2,1.8,4,4,4
			c2.2,0,4-1.8,4-4c0-2.2-1.8-4-4-4c-0.6,0-1-0.4-1-1c0-0.6,0.4-1,1-1c3.3,0,6,2.7,6,6c0,3.3-2.7,6-6,6c-3.3,0-6-2.7-6-6
			c0-1,0.3-2,0.7-2.9c-2.4-1-5.6-2.1-9.7-3.2c-0.4-0.1-0.8-0.2-1.3-0.3l-26.8,26.8c-0.6,0.6-0.9,1.3-0.9,2.1c0,0.8,0.3,1.6,0.9,2.1
			l18.4,18.4c1.1,1.1,3.1,1.1,4.2,0l29.7-29.7c1.9-1.9,2.7-3.7,2.7-6.3v-16c0-1.7-1.3-3-3-3h-16c-2.6,0-4.3,0.8-6.3,2.7
			c-0.4,0.4-1,0.4-1.4,0c-0.4-0.4-0.4-1,0-1.4c2.3-2.3,4.6-3.3,7.7-3.3h16C-217.3,367-215.1,369.2-215.1,372L-215.1,372z"/>
	</g>
</g>
</svg>
