<?xml version="1.0" encoding="utf-8"?>
<!-- Generator: Adobe Illustrator 19.0.0, SVG Export Plug-In . SVG Version: 6.00 Build 0)  -->
<svg version="1.1" id="Слой_1" xmlns="http://www.w3.org/2000/svg" xmlns:xlink="http://www.w3.org/1999/xlink" x="0px" y="0px"
	 viewBox="-280 372 50 50" style="enable-background:new -280 372 50 50;" xml:space="preserve">
<style type="text/css">
	.st0{display:none;}
	.st1{display:inline;}
	.st2{display:inline;fill:none;stroke:#000000;stroke-width:3;stroke-miterlimit:10;}
	.st3{display:inline;fill:none;stroke:#000000;stroke-width:5;stroke-linecap:round;stroke-miterlimit:10;}
	.st4{display:inline;fill:none;stroke:#000000;stroke-width:3;stroke-linecap:round;stroke-miterlimit:10;}
	.st5{fill:none;stroke:#000000;stroke-width:3;stroke-linecap:round;stroke-miterlimit:10;}
	.st6{display:inline;stroke:#000000;stroke-width:3;stroke-linecap:round;stroke-miterlimit:10;}
	.st7{display:none;fill:none;stroke:#000000;stroke-width:3;stroke-linecap:round;stroke-miterlimit:10;}
	.st8{fill:#1C9DD9;}
</style>
<g id="поиск" class="st0">
	<g class="st1">
		<g>
			<path d="M-260.5,380.2c6.2,0,11.3,5.1,11.3,11.3s-5.1,11.3-11.3,11.3c-6.2,0-11.3-5-11.3-11.3S-266.8,380.2-260.5,380.2
				 M-260.5,377.2c-7.9,0-14.3,6.4-14.3,14.3s6.4,14.3,14.3,14.3s14.3-6.4,14.3-14.3S-252.7,377.2-260.5,377.2L-260.5,377.2z"/>
		</g>
	</g>
	<line class="st2" x1="-251.2" y1="400.7" x2="-247.9" y2="404"/>
	<line class="st3" x1="-235.2" y1="416.8" x2="-247" y2="405"/>
</g>
<g id="активы" class="st0">
	<path class="st4" d="M-233.7,385.9h-42.6c-0.3,0-0.5-0.2-0.5-0.5v-6.8c0-0.6,0.4-1,1-1h41.7c0.6,0,1,0.4,1,1v6.8
		C-233.2,385.7-233.4,385.9-233.7,385.9z"/>
	<path class="st4" d="M-237.5,416.4h-35c-0.6,0-1-0.4-1-1v-29.5h37.1v29.5C-236.5,415.9-236.9,416.4-237.5,416.4z"/>
	<path class="st4" d="M-247.7,398.5h-14.1c-1.6,0-2.9-1.3-2.9-2.9l0,0c0-1.6,1.3-2.9,2.9-2.9h14.1c1.6,0,2.9,1.3,2.9,2.9l0,0
		C-244.8,397.1-246.1,398.5-247.7,398.5z"/>
</g>
<g id="заявки" class="st0">
	<path class="st4" d="M-268.4,413.3h-3c-0.6,0-1-0.4-1-1v-32c0-0.6,0.4-1,1-1h3V413.3z"/>
	<path class="st4" d="M-247.8,378.1h-19.6c-0.6,0-1,0.4-1,1v35.8c0,0.6,0.4,1,1,1h28.9c0.6,0,1-0.4,1-1V387c0-0.3-0.1-0.6-0.4-0.8
		l-9.2-7.8C-247.3,378.2-247.6,378.1-247.8,378.1z"/>
	<line class="st4" x1="-247.8" y1="378.1" x2="-247.8" y2="386.9"/>
	<line class="st4" x1="-237.6" y1="387" x2="-247.8" y2="387"/>
	<g class="st1">
		<line class="st5" x1="-261" y1="392.9" x2="-244" y2="392.9"/>
		<line class="st5" x1="-261" y1="398" x2="-246.7" y2="398"/>
		<line class="st5" x1="-261" y1="402.9" x2="-244" y2="402.9"/>
		<line class="st5" x1="-261" y1="407.6" x2="-246.7" y2="407.6"/>
	</g>
</g>
<g id="регистрация" class="st0">
	<path class="st4" d="M-241.5,404.6v10.7c0,0.6-0.4,1-0.9,1h-28.3c-0.5,0-0.9-0.4-0.9-1v-36.7c0-0.6,0.4-1,0.9-1h28.3
		c0.5,0,0.9,0.4,0.9,1v10.5"/>
	<path class="st6" d="M-251.5,402v-10c0-0.2-0.3-0.4-0.5-0.2l-6.6,5c-0.2,0.1-0.2,0.4,0,0.5l6.6,5
		C-251.7,402.4-251.5,402.2-251.5,402z"/>
	<line class="st4" x1="-251.5" y1="397" x2="-234.4" y2="397"/>
</g>
<g id="оповещение" class="st0">
	<path class="st4" d="M-270.1,388.1h31.3v-4.6c0-0.6-0.4-1-1-1h-35.8c-0.6,0-1,0.4-1,1v23.2c0,0.6,0.4,1,1,1h4.6v-18.6
		C-271.1,388.5-270.6,388.1-270.1,388.1z"/>
	<path class="st4" d="M-234,414.8h-36.1c-0.6,0-1-0.4-1-1v-24.7c0-0.6,0.4-1,1-1h36.1c0.6,0,1,0.4,1,1v24.7
		C-233,414.4-233.4,414.8-234,414.8z"/>
	<path class="st4" d="M-234,414.8h-36.1c-0.6,0-1-0.4-1-1v-24.7c0-0.6,0.4-1,1-1l15.3,14.6c1.5,1.5,4,1.5,5.5,0l15.3-14.6
		c0.6,0,1,0.4,1,1v24.7C-233,414.4-233.4,414.8-234,414.8z"/>
	<line class="st4" x1="-257.7" y1="399.9" x2="-271.1" y2="410.6"/>
	<line class="st4" x1="-246.4" y1="400.1" x2="-233" y2="410.9"/>
</g>
<g id="синхронизация" class="st0">
	<path class="st6" d="M-249.2,408.6l5.8,8.1c0.1,0.2,0.5,0.2,0.5-0.1l2.5-7.9c0.1-0.2-0.1-0.4-0.3-0.4l-8.3-0.2
		C-249.2,408.1-249.3,408.4-249.2,408.6z"/>
	<path class="st6" d="M-261.3,384.6l-5.8-8.1c-0.1-0.2-0.5-0.2-0.5,0.1l-2.5,7.9c-0.1,0.2,0.1,0.4,0.3,0.4l8.3,0.2
		C-261.3,385.1-261.1,384.8-261.3,384.6z"/>
	<path class="st4" d="M-240.6,408.5c-3.5,4.3-8.7,7-14.6,7c-10.4,0-18.8-8.4-18.8-18.8c0-1.5,0.2-2.9,0.5-4.3"/>
	<path class="st4" d="M-269.9,384.6c3.5-4.3,8.7-7,14.6-7c10.4,0,18.8,8.4,18.8,18.8c0,1.5-0.2,2.9-0.5,4.3"/>
</g>
<path id="взаимодействие" class="st7" d="M-254.9,377.3c-11.5,0-20.9,8.1-20.9,18.2c0,5.8,3.1,11,8,14.3l-4.7,7.2
	c-0.2,0.2,0.1,0.5,0.3,0.4c4.7-0.6,8.9-2,12.5-4.3c1.5,0.3,3.1,0.5,4.8,0.5c11.5,0,20.9-8.1,20.9-18.2S-243.3,377.3-254.9,377.3z"/>
<g id="SLA">
	<g>
		<path class="st8" d="M-236.6,417.9h-36.8c-1.4,0-2.5-1.1-2.5-2.5v-36.8c0-1.4,1.1-2.5,2.5-2.5h36.8c1.4,0,2.5,1.1,2.5,2.5v36.8
			C-234.1,416.7-235.3,417.9-236.6,417.9z M-272.9,414.9h35.8v-35.8h-35.8V414.9z"/>
	</g>
	<g>
		<g>
			<g>
				<path class="st8" d="M-255.6,409.7h-12.5c-0.8,0-1.5-0.7-1.5-1.5s0.7-1.5,1.5-1.5h12.5c0.8,0,1.5,0.7,1.5,1.5
					S-254.8,409.7-255.6,409.7z"/>
			</g>
			<g>
				<path class="st8" d="M-246.8,411c-0.4,0-0.8-0.2-1.1-0.5l-2.5-2.7c-0.6-0.6-0.5-1.6,0.1-2.1c0.6-0.6,1.6-0.5,2.1,0.1l2.5,2.7
					c0.6,0.6,0.5,1.6-0.1,2.1C-246.1,410.9-246.4,411-246.8,411z"/>
			</g>
			<g>
				<path class="st8" d="M-246.8,411c-0.4,0-0.8-0.1-1-0.4c-0.6-0.6-0.6-1.5,0-2.1l4.9-5c0.6-0.6,1.5-0.6,2.1,0
					c0.6,0.6,0.6,1.5,0,2.1l-4.9,5C-246,410.8-246.4,411-246.8,411z"/>
			</g>
		</g>
		<g>
			<g>
				<path class="st8" d="M-255.6,399.7h-12.5c-0.8,0-1.5-0.7-1.5-1.5c0-0.8,0.7-1.5,1.5-1.5h12.5c0.8,0,1.5,0.7,1.5,1.5
					C-254.1,399-254.8,399.7-255.6,399.7z"/>
			</g>
			<g>
				<path class="st8" d="M-246.8,401c-0.4,0-0.8-0.2-1.1-0.5l-2.5-2.7c-0.6-0.6-0.5-1.6,0.1-2.1c0.6-0.6,1.6-0.5,2.1,0.1l2.5,2.7
					c0.6,0.6,0.5,1.6-0.1,2.1C-246.1,400.9-246.4,401-246.8,401z"/>
			</g>
			<g>
				<path class="st8" d="M-246.8,401c-0.4,0-0.8-0.1-1-0.4c-0.6-0.6-0.6-1.5,0-2.1l4.9-5c0.6-0.6,1.5-0.6,2.1,0
					c0.6,0.6,0.6,1.5,0,2.1l-4.9,5C-246,400.8-246.4,401-246.8,401z"/>
			</g>
		</g>
		<g>
			<g>
				<path class="st8" d="M-255.6,389.7h-12.5c-0.8,0-1.5-0.7-1.5-1.5s0.7-1.5,1.5-1.5h12.5c0.8,0,1.5,0.7,1.5,1.5
					S-254.8,389.7-255.6,389.7z"/>
			</g>
			<g>
				<path class="st8" d="M-246.8,391c-0.4,0-0.8-0.2-1.1-0.5l-2.5-2.7c-0.6-0.6-0.5-1.6,0.1-2.1c0.6-0.6,1.6-0.5,2.1,0.1l2.5,2.7
					c0.6,0.6,0.5,1.6-0.1,2.1C-246.1,390.9-246.4,391-246.8,391z"/>
			</g>
			<g>
				<path class="st8" d="M-246.8,391c-0.4,0-0.8-0.1-1-0.4c-0.6-0.6-0.6-1.5,0-2.1l4.9-5c0.6-0.6,1.5-0.6,2.1,0
					c0.6,0.6,0.6,1.5,0,2.1l-4.9,5C-246,390.8-246.4,391-246.8,391z"/>
			</g>
		</g>
	</g>
</g>
<g id="отчет" class="st0">
	<path class="st4" d="M-235.8,381.3h-38.5c-0.6,0-1-0.4-1-1v-3.4c0-0.6,0.4-1,1-1h38.5c0.6,0,1,0.4,1,1v3.4
		C-234.8,380.9-235.3,381.3-235.8,381.3z"/>
	<path class="st4" d="M-237.8,410.4h-34.5c-0.6,0-1-0.4-1-1v-28.1h36.5v28.1C-236.8,410-237.3,410.4-237.8,410.4z"/>
	<line class="st4" x1="-255" y1="414.8" x2="-255" y2="410.4"/>
	<circle class="st4" cx="-255" cy="417.6" r="2.2"/>
	<g class="st1">
		<line class="st5" x1="-252" y1="390.8" x2="-241.3" y2="390.8"/>
		<line class="st5" x1="-252" y1="395.9" x2="-241.3" y2="395.9"/>
		<line class="st5" x1="-252" y1="401" x2="-241.3" y2="401"/>
		<path class="st5" d="M-262.2,395.4l-0.6-5.2c0-0.2-0.1-0.3-0.3-0.3c-3.5,0.2-6.2,3.5-5.4,7.1c0.5,2.2,2.3,4,4.5,4.5
			c3.7,0.8,6.9-1.9,7.1-5.3c0-0.2-0.1-0.3-0.3-0.3L-262.2,395.4z"/>
	</g>
</g>
</svg>
