<?xml version="1.0" encoding="utf-8"?>
<!-- Generator: Adobe Illustrator 19.0.0, SVG Export Plug-In . SVG Version: 6.00 Build 0)  -->
<svg version="1.1" id="Layer_1" xmlns="http://www.w3.org/2000/svg" xmlns:xlink="http://www.w3.org/1999/xlink" x="0px" y="0px"
	 viewBox="-49 141 512 512" style="enable-background:new -49 141 512 512;" xml:space="preserve">
<style type="text/css">
	.st0{fill:#F05026;}
	.st1{fill:#FFFFFF;}
</style>
<circle class="st0" cx="207" cy="397" r="231"/>
<g id="Layer_1_1_">
</g>
<g id="Layer_2">
	<path class="st1" d="M320.1,381.4c-2.6-1.5-5.8-1.5-8.4,0l-37.4,25.2v-26.2c0-4.6-3.8-8.4-8.4-8.4h-8.6c5.5-7.3,8.4-16.1,8.4-25.2
		c0-23.2-18.8-42-42-42c-11.2,0-22,4.5-29.9,12.5c-11.4-25.4-41.2-36.7-66.6-25.3c-25.4,11.4-36.7,41.2-25.3,66.6
		c2.2,4.9,5.2,9.4,8.8,13.3H97.8c-4.6,0-8.4,3.8-8.4,8.4v117.5c0,4.6,3.8,8.4,8.4,8.4h167.9c4.6,0,8.4-3.8,8.4-8.4v-26.3l37.4,25.2
		c3.9,2.6,9.1,1.5,11.6-2.4c1-1.5,1.4-3.2,1.4-4.9V388.8C324.5,385.7,322.8,382.9,320.1,381.4z M223.8,321.6
		c13.9,0,25.2,11.3,25.2,25.2c0,13.9-11.3,25.2-25.2,25.2c-13.9,0-25.2-11.3-25.2-25.2C198.6,332.9,209.9,321.6,223.8,321.6z
		 M190.2,372h-4.8c0.9-1,1.8-2,2.6-3.1C188.9,370,189.6,371,190.2,372z M114.6,338.4c0-18.5,15-33.6,33.6-33.6s33.6,15,33.6,33.6
		s-15,33.6-33.6,33.6S114.6,357,114.6,338.4z"/>
</g>
</svg>
